<svg width="129" height="129" viewBox="0 0 129 129" fill="none" xmlns="http://www.w3.org/2000/svg">
<circle cx="64.5" cy="64.5" r="64.5" fill="#3E4685"/>
<circle cx="64.5" cy="44.5" r="13.5" fill="white"/>
<circle cx="33" cy="53" r="13" fill="white"/>
<circle cx="64" cy="84" r="13" fill="white"/>
<circle cx="96" cy="53" r="13" fill="white"/>
<path d="M61.5 71.5C51.4149 68.028 47.5676 64.5897 45.5 54.5L35 65.5C39.1666 65.3333 48.2 68.4 51 82C53.8 95.6 59.1666 80.6667 61.5 71.5Z" fill="white"/>
<path d="M83.5 54C83.5 66.8 71 71.1667 65 71.5L77 84C79 70 89.1667 66.1667 94 66L83.5 54Z" fill="white"/>
<path d="M61.5 71.5C51.4149 68.028 47.5676 64.5897 45.5 54.5L35 65.5C39.1666 65.3333 48.2 68.4 51 82C53.8 95.6 59.1666 80.6667 61.5 71.5Z" stroke="white"/>
<path d="M83.5 54C83.5 66.8 71 71.1667 65 71.5L77 84C79 70 89.1667 66.1667 94 66L83.5 54Z" stroke="white"/>
</svg>
