<svg width="512" height="512" viewBox="0 0 512 512" fill="none" xmlns="http://www.w3.org/2000/svg">
<path d="M504 220C499.582 220 496 223.582 496 228V444C496 466.056 478.056 484 456 484H56C33.944 484 16 466.056 16 444V228C16 223.582 12.418 220 8 220C3.582 220 0 223.582 0 228V444C0 474.878 25.122 500 56 500H456C486.878 500 512 474.878 512 444V228C512 223.582 508.418 220 504 220Z" fill="#4852A0"/>
<path d="M7.55102 205.231L225.641 345.934C234.862 351.883 245.431 354.858 256 354.858C266.569 354.858 277.138 351.883 286.359 345.934L504.448 205.231C509.503 201.971 512.297 196.366 511.74 190.605C510.409 176.849 504.011 164.094 493.722 154.688C485.359 147.043 475.019 142.175 464 140.58V36C464 22.766 453.234 12 440 12H72C58.766 12 48 22.766 48 36V140.58C36.981 142.175 26.641 147.044 18.278 154.688C7.98902 164.094 1.59002 176.85 0.260019 190.606C-0.296981 196.367 2.49702 201.971 7.55102 205.231ZM48 156.837V196C48 200.418 51.582 204 56 204C60.418 204 64 200.418 64 196V36C64 31.589 67.589 28 72 28H440C444.411 28 448 31.589 448 36V196C448 200.418 451.582 204 456 204C460.418 204 464 200.418 464 196V156.837C480.656 160.32 493.933 174.399 495.778 191.784C495.777 191.785 495.776 191.785 495.775 191.786L277.685 332.489C264.511 340.988 247.489 340.988 234.315 332.489L16.225 191.785C16.224 191.785 16.224 191.784 16.223 191.784C18.067 174.398 31.344 160.32 48 156.837Z" fill="#4852A0"/>
<path d="M104 100H408C412.418 100 416 96.418 416 92C416 87.582 412.418 84 408 84H104C99.582 84 96 87.582 96 92C96 96.418 99.582 100 104 100Z" fill="#4852A0"/>
<path d="M408 132H224C219.582 132 216 135.582 216 140C216 144.418 219.582 148 224 148H408C412.418 148 416 144.418 416 140C416 135.582 412.418 132 408 132Z" fill="#4852A0"/>
<path d="M104 148H192C196.418 148 200 144.418 200 140C200 135.582 196.418 132 192 132H104C99.582 132 96 135.582 96 140C96 144.418 99.582 148 104 148Z" fill="#4852A0"/>
<path d="M104 196H304C308.418 196 312 192.418 312 188C312 183.582 308.418 180 304 180H104C99.582 180 96 183.582 96 188C96 192.418 99.582 196 104 196Z" fill="#4852A0"/>
<path d="M408 180H336C331.582 180 328 183.582 328 188C328 192.418 331.582 196 336 196H408C412.418 196 416 192.418 416 188C416 183.582 412.418 180 408 180Z" fill="#4852A0"/>
<path d="M392 228H184C179.582 228 176 231.582 176 236C176 240.418 179.582 244 184 244H392C396.418 244 400 240.418 400 236C400 231.582 396.418 228 392 228Z" fill="#4852A0"/>
<path d="M152 228H120C115.582 228 112 231.582 112 236C112 240.418 115.582 244 120 244H152C156.418 244 160 240.418 160 236C160 231.582 156.418 228 152 228Z" fill="#4852A0"/>
<path d="M304 276H208C203.582 276 200 279.582 200 284C200 288.418 203.582 292 208 292H304C308.418 292 312 288.418 312 284C312 279.582 308.418 276 304 276Z" fill="#4852A0"/>
</svg>
